<svg xmlns="http://www.w3.org/2000/svg" viewBox="0 0 64 64"><title>car navigation</title><g id="car_navigation" data-name="car navigation"><path d="M11,45h9a0,0,0,0,1,0,0v5.73A2.27,2.27,0,0,1,17.73,53H13.27A2.27,2.27,0,0,1,11,50.73V45A0,0,0,0,1,11,45Z"/><path d="M55.93,31.69a3.89,3.89,0,0,0-.81-1.79L52,26,48.37,15.1A6,6,0,0,0,42.68,11H21.25a6,6,0,0,0-5.69,4.1L11.93,26,8.81,29.9A3.89,3.89,0,0,0,8,31.69l.07,0A4.4,4.4,0,0,0,8,32.4V42a3,3,0,0,0,3,3H25l1-1h9.38A11.86,11.86,0,0,1,35,41c0-.34,0-.67,0-1H26.82a1,1,0,0,1-1-.8l-.6-3a1,1,0,0,1,1-1.2H36.6a12,12,0,0,1,19.33-2V32.4a4.4,4.4,0,0,0-.07-.73ZM22,38a2,2,0,0,1-2,2H14a2,2,0,0,1-2-2V36a2,2,0,0,1,2-2h1l5.25.78a2,2,0,0,1,1.75,2Zm25.14-9.9,0,0A3,3,0,0,1,45,29H19a3,3,0,0,1-2.38-1.17,2.81,2.81,0,0,1-.32-2.65l3.27-8.87A2,2,0,0,1,21.44,15H42.56a2,2,0,0,1,1.87,1.31l3.26,8.84A2.83,2.83,0,0,1,47.14,28.1Z"/><rect x="51" y="21" width="8" height="5" rx="2.5" ry="2.5"/><rect x="5" y="21" width="8" height="5" rx="2.5" ry="2.5"/><path d="M47,54A13,13,0,0,1,34,41c0-.37,0-.73,0-1.09a13.23,13.23,0,0,1,1.69-5.41A13,13,0,1,1,47,54Zm0-24a11,11,0,0,0-9.53,5.5A10.73,10.73,0,0,0,36,40.08c0,.31,0,.61,0,.92A11,11,0,1,0,47,30Z"/><polygon points="48.85 49.55 45.39 43.11 38.95 39.65 53.1 35.4 48.85 49.55"/></g></svg>